<svg width="16" height="16" viewBox="0 0 16 16" fill="none" xmlns="http://www.w3.org/2000/svg">
<path fill-rule="evenodd" clip-rule="evenodd" d="M3.62702 13.6567C3.27256 14.0114 2.69752 14.0114 2.3432 13.6568C2.17196 13.4856 2.07715 13.2556 2.07715 13.0149C2.07715 12.7742 2.17195 12.5442 2.34314 12.373L6.71626 8.00009L2.34315 3.62694C2.17195 3.45575 2.07715 3.22576 2.07715 2.98506C2.07715 2.74449 2.17184 2.51452 2.3429 2.34318C2.69729 1.98851 3.27232 1.98853 3.62663 2.34313L7.99981 6.71635L12.3728 2.34328C12.7273 1.98853 13.3023 1.98851 13.6567 2.34312C14.0114 2.69781 14.0114 3.27228 13.6567 3.62693L9.2836 8.00009L13.6567 12.373C14.0114 12.7277 14.0114 13.3021 13.6568 13.6567C13.3024 14.0114 12.7273 14.0115 12.373 13.6568L7.99981 9.28384L3.62702 13.6567Z" fill="white"/>
<mask id="mask0" mask-type="alpha" maskUnits="userSpaceOnUse" x="2" y="2" width="12" height="12">
<path fill-rule="evenodd" clip-rule="evenodd" d="M3.62702 13.6567C3.27256 14.0114 2.69752 14.0114 2.3432 13.6568C2.17196 13.4856 2.07715 13.2556 2.07715 13.0149C2.07715 12.7742 2.17195 12.5442 2.34314 12.373L6.71626 8.00009L2.34315 3.62694C2.17195 3.45575 2.07715 3.22576 2.07715 2.98506C2.07715 2.74449 2.17184 2.51452 2.3429 2.34318C2.69729 1.98851 3.27232 1.98853 3.62663 2.34313L7.99981 6.71635L12.3728 2.34328C12.7273 1.98853 13.3023 1.98851 13.6567 2.34312C14.0114 2.69781 14.0114 3.27228 13.6567 3.62693L9.2836 8.00009L13.6567 12.373C14.0114 12.7277 14.0114 13.3021 13.6568 13.6567C13.3024 14.0114 12.7273 14.0115 12.373 13.6568L7.99981 9.28384L3.62702 13.6567Z" fill="white"/>
</mask>
<g mask="url(#mask0)">
<rect width="16" height="16" fill="#001122"/>
<path d="M0 0V-0.5L-0.5 0H0ZM16 0H16.5L16 -0.5V0ZM16 16V16.5L16.5 16H16ZM0 16H-0.5L0 16.5V16ZM0 0.5H16V-0.5H0V0.5ZM15.5 0V16H16.5V0H15.5ZM16 15.5H0V16.5H16V15.5ZM0.5 16V0H-0.5V16H0.5Z" fill="black" fill-opacity="0.25"/>
</g>
</svg>
