<svg width="16" height="16" viewBox="0 0 16 16" fill="none" xmlns="http://www.w3.org/2000/svg">
<path fill-rule="evenodd" clip-rule="evenodd" d="M15.138 0.861C14.584 0.3055 13.8451 0 13.0606 0C12.2761 0 11.5381 0.305 10.9836 0.86L2.14737 9.6455C2.09488 9.6975 2.05488 9.76 2.02988 9.829L0.0299321 15.329C-0.0345661 15.5065 0.00693274 15.707 0.137429 15.8445C0.233427 15.9455 0.364923 16 0.500419 16C0.549418 16 0.598417 15.993 0.646915 15.978L5.62128 14.452C5.69928 14.4285 5.77028 14.3855 5.82828 14.328L15.1385 5.0175C15.6945 4.463 16 3.724 16 2.939C15.9995 2.1545 15.6945 1.416 15.138 0.861ZM5.0463 13.5825L3.18435 14.1545C3.07585 13.836 2.90686 13.554 2.67636 13.3235C2.47587 13.124 2.24338 12.969 1.99838 12.843L2.85036 10.5H4.00033V11.5C4.00033 11.7765 4.22382 12 4.50031 12H5.38279L5.0463 13.5825ZM12.4061 6.3355L6.3143 12.4275L6.48929 11.604C6.52029 11.456 6.48329 11.3025 6.38829 11.1855C6.2933 11.068 6.1508 11 6.00031 11H5.00033V10C5.00033 9.724 4.77634 9.5 4.50035 9.5H3.71137L9.65771 3.5875L9.66371 3.593C10.0297 3.2265 10.5172 3.025 11.0347 3.025C11.5522 3.025 12.0401 3.2265 12.4056 3.593C12.7711 3.9595 12.9746 4.4465 12.9746 4.9645C12.9746 5.4825 12.7731 5.969 12.4061 6.3355ZM14.4311 4.3105L13.9651 4.777C13.9201 4.0625 13.6236 3.3965 13.1136 2.886C12.6031 2.375 11.9366 2.079 11.2202 2.0345L11.6892 1.569L11.6902 1.568C12.0551 1.2015 12.5426 1 13.0606 1C13.5786 1 14.0656 1.2015 14.4311 1.568C14.7981 1.9345 15.0001 2.4215 15.0001 2.939C15.0001 3.4575 14.7991 3.9445 14.4311 4.3105ZM11.1466 4.1465L6.14676 9.1465C5.95126 9.342 5.95126 9.658 6.14676 9.8535C6.24376 9.951 6.37225 10 6.50025 10C6.62824 10 6.75574 9.951 6.85374 9.8535L11.8536 4.8535C12.0491 4.658 12.0491 4.342 11.8536 4.1465C11.6576 3.951 11.3421 3.951 11.1466 4.1465Z" fill="white"/>
<mask id="mask0" mask-type="alpha" maskUnits="userSpaceOnUse" x="0" y="0" width="16" height="16">
<path fill-rule="evenodd" clip-rule="evenodd" d="M15.138 0.861C14.584 0.3055 13.8451 0 13.0606 0C12.2761 0 11.5381 0.305 10.9836 0.86L2.14737 9.6455C2.09488 9.6975 2.05488 9.76 2.02988 9.829L0.0299321 15.329C-0.0345661 15.5065 0.00693274 15.707 0.137429 15.8445C0.233427 15.9455 0.364923 16 0.500419 16C0.549418 16 0.598417 15.993 0.646915 15.978L5.62128 14.452C5.69928 14.4285 5.77028 14.3855 5.82828 14.328L15.1385 5.0175C15.6945 4.463 16 3.724 16 2.939C15.9995 2.1545 15.6945 1.416 15.138 0.861ZM5.0463 13.5825L3.18435 14.1545C3.07585 13.836 2.90686 13.554 2.67636 13.3235C2.47587 13.124 2.24338 12.969 1.99838 12.843L2.85036 10.5H4.00033V11.5C4.00033 11.7765 4.22382 12 4.50031 12H5.38279L5.0463 13.5825ZM12.4061 6.3355L6.3143 12.4275L6.48929 11.604C6.52029 11.456 6.48329 11.3025 6.38829 11.1855C6.2933 11.068 6.1508 11 6.00031 11H5.00033V10C5.00033 9.724 4.77634 9.5 4.50035 9.5H3.71137L9.65771 3.5875L9.66371 3.593C10.0297 3.2265 10.5172 3.025 11.0347 3.025C11.5522 3.025 12.0401 3.2265 12.4056 3.593C12.7711 3.9595 12.9746 4.4465 12.9746 4.9645C12.9746 5.4825 12.7731 5.969 12.4061 6.3355ZM14.4311 4.3105L13.9651 4.777C13.9201 4.0625 13.6236 3.3965 13.1136 2.886C12.6031 2.375 11.9366 2.079 11.2202 2.0345L11.6892 1.569L11.6902 1.568C12.0551 1.2015 12.5426 1 13.0606 1C13.5786 1 14.0656 1.2015 14.4311 1.568C14.7981 1.9345 15.0001 2.4215 15.0001 2.939C15.0001 3.4575 14.7991 3.9445 14.4311 4.3105ZM11.1466 4.1465L6.14676 9.1465C5.95126 9.342 5.95126 9.658 6.14676 9.8535C6.24376 9.951 6.37225 10 6.50025 10C6.62824 10 6.75574 9.951 6.85374 9.8535L11.8536 4.8535C12.0491 4.658 12.0491 4.342 11.8536 4.1465C11.6576 3.951 11.3421 3.951 11.1466 4.1465Z" fill="white"/>
</mask>
<g mask="url(#mask0)">
<rect width="16" height="16" fill="#001122" stroke="#EEEEEE"/>
<path d="M0 0V-0.5L-0.5 0H0ZM16 0H16.5L16 -0.5V0ZM16 16V16.5L16.5 16H16ZM0 16H-0.5L0 16.5V16ZM0 0.5H16V-0.5H0V0.5ZM15.5 0V16H16.5V0H15.5ZM16 15.5H0V16.5H16V15.5ZM0.5 16V0H-0.5V16H0.5Z" fill="black" fill-opacity="0.25"/>
</g>
</svg>
