<svg width="16" height="16" viewBox="0 0 16 16" fill="none" xmlns="http://www.w3.org/2000/svg">
<path fill-rule="evenodd" clip-rule="evenodd" d="M8 0C3.5888 0 0 3.5888 0 8C0 12.4112 3.5888 16 8 16C12.4112 16 16 12.4112 16 8C16 3.5888 12.4112 0 8 0ZM8.00001 14.7454C4.28062 14.7454 1.25442 11.7196 1.25442 8C1.25442 4.28043 4.28062 1.25459 8.00001 1.25459C11.7194 1.25459 14.7456 4.28043 14.7456 8C14.7456 11.7196 11.7194 14.7454 8.00001 14.7454ZM5.21288 4.89682C5.93695 5.17117 6.7006 5.33572 7.47981 5.3844V7.37764L9.85013 5.16728C10.0431 4.98737 10.3454 4.99802 10.5255 5.19107C10.7055 5.38411 10.695 5.68649 10.5021 5.8664L8.20947 8.0043L9.98863 9.91221C10.1687 10.1053 10.1582 10.4076 9.96525 10.5876C9.77233 10.7675 9.46995 10.7568 9.28993 10.5638L7.1848 8.30628C7.00478 8.11323 7.01524 7.81085 7.20817 7.63094L7.28038 7.5636H4.84116C4.87394 6.62376 5.00021 5.72004 5.21288 4.89682Z" fill="white"/>
<mask id="mask0" mask-type="alpha" maskUnits="userSpaceOnUse" x="0" y="0" width="16" height="16">
<path fill-rule="evenodd" clip-rule="evenodd" d="M8 0C3.5888 0 0 3.5888 0 8C0 12.4112 3.5888 16 8 16C12.4112 16 16 12.4112 16 8C16 3.5888 12.4112 0 8 0ZM8.39191 14.7342C11.9296 14.5305 14.7456 11.588 14.7456 8C14.7456 4.41197 11.9296 1.46947 8.39191 1.26584V5.64841C8.39191 5.64841 7.97403 5.9853 7.47981 6.41126V5.3844C6.7006 5.33572 5.93695 5.17117 5.21288 4.89682C5.00021 5.72004 4.87394 6.62376 4.84116 7.5636H6.24006C6.02818 7.78994 5.88963 7.97423 5.88963 8.06916C5.88963 8.15712 6.00857 8.34097 6.19459 8.57472H4.8443C4.87723 9.51847 5.00573 10.4288 5.22202 11.2604C5.94648 10.9857 6.70781 10.8213 7.48608 10.7727V9.98987C7.97756 10.4925 8.39191 10.8934 8.39191 10.8934V14.7342ZM5.4397 14.2407C4.82924 13.9894 4.26347 13.651 3.75793 13.241C4.02921 13.0252 4.31578 12.8308 4.61521 12.6593C4.72195 12.9337 4.83429 13.1873 4.95369 13.421C5.10485 13.7201 5.26705 13.9937 5.4397 14.2407ZM7.48609 11.7853C6.81388 11.8335 6.15456 11.982 5.52841 12.2249C5.62916 12.4912 5.73752 12.7394 5.85472 12.9712C6.32685 13.9046 6.89419 14.5065 7.48609 14.7246V11.7853ZM9.98863 9.91221L8.20947 8.0043L10.5021 5.8664C10.695 5.68649 10.7055 5.38411 10.5255 5.19107C10.3454 4.99802 10.0431 4.98737 9.85013 5.16728L7.20817 7.63094C7.01524 7.81085 7.00478 8.11323 7.1848 8.30628L9.28993 10.5638C9.46995 10.7568 9.77233 10.7675 9.96525 10.5876C10.1582 10.4076 10.1687 10.1053 9.98863 9.91221Z" fill="white"/>
</mask>
<g mask="url(#mask0)">
<rect width="16.0267" height="16.0267" fill="#001122" stroke="#EEEEEE"/>
<path d="M0 0V-0.5L-0.5 0H0ZM16.0267 0H16.5267L16.0267 -0.5V0ZM16.0267 16.0267V16.5267L16.5267 16.0267H16.0267ZM0 16.0267H-0.5L0 16.5267V16.0267ZM0 0.5H16.0267V-0.5H0V0.5ZM15.5267 0V16.0267H16.5267V0H15.5267ZM16.0267 15.5267H0V16.5267H16.0267V15.5267ZM0.5 16.0267V0H-0.5V16.0267H0.5Z" fill="black" fill-opacity="0.25"/>
</g>
</svg>
