<svg width="16" height="16" viewBox="0 0 16 16" fill="none" xmlns="http://www.w3.org/2000/svg">
<path fill-rule="evenodd" clip-rule="evenodd" d="M12.666 6.99999C13.5115 6.23139 13.9952 5.14298 13.9991 4.00037C13.9926 1.79424 12.2058 0.00745495 9.99972 0.000866173C8.0354 -0.0402844 6.34854 1.38929 6.06694 3.33378H6.00028C3.79419 3.34037 2.00744 5.12715 2.00085 7.33328C2.0048 8.4759 2.48853 9.56431 3.334 10.3329C1.97518 10.677 0.789498 11.5069 0.00113638 12.6659V15.3323C-0.00967661 15.5122 0.0570716 15.6881 0.184498 15.8155C0.311924 15.9429 0.487825 16.0097 0.667708 15.9989H11.3329C11.5127 16.0097 11.6886 15.9429 11.8161 15.8155C11.9435 15.6881 12.0102 15.5122 11.9994 15.3323V12.6659H15.3323C15.5122 12.6768 15.6881 12.61 15.8155 12.4826C15.9429 12.3552 16.0097 12.1793 15.9989 11.9994V9.33303C15.224 8.1608 14.0326 7.32684 12.666 6.99999ZM9.99973 1.33403C11.4705 1.33842 12.6616 2.52961 12.666 4.00036C12.6752 4.71031 12.3973 5.39388 11.8953 5.89593C11.3932 6.39797 10.7097 6.67593 9.99973 6.6667C9.99973 5.26687 8.73324 4.06702 7.4001 3.60041C7.58989 2.30762 8.69315 1.34579 9.99973 1.33403ZM3.334 7.33328C3.334 5.86071 4.52774 4.66695 6.00029 4.66695C7.47284 4.66695 8.66658 5.86071 8.66658 7.33328C8.66658 8.80585 7.47284 9.99961 6.00029 9.99961C4.52956 9.99522 3.33839 8.80403 3.334 7.33328ZM10.6663 14.6657H1.33427V13.3325C1.33427 13.3325 2.66741 11.3328 6.00027 11.3328C9.33313 11.3328 10.6663 13.3325 10.6663 13.3325V14.6657ZM14.6658 11.3328H10.733C10.1402 10.8295 9.42908 10.4855 8.66661 10.3329C9.35135 9.72944 9.80007 8.90283 9.93309 7.99986H9.99975C13.3326 7.99986 14.6658 9.99961 14.6658 9.99961V11.3328Z" fill="white"/>
<mask id="mask0" mask-type="alpha" maskUnits="userSpaceOnUse" x="0" y="0" width="16" height="16">
<path fill-rule="evenodd" clip-rule="evenodd" d="M12.666 6.99999C13.5115 6.23139 13.9952 5.14298 13.9991 4.00037C13.9926 1.79424 12.2058 0.00745495 9.99972 0.000866173C8.0354 -0.0402844 6.34854 1.38929 6.06694 3.33378H6.00028C3.79419 3.34037 2.00744 5.12715 2.00085 7.33328C2.0048 8.4759 2.48853 9.56431 3.334 10.3329C1.97518 10.677 0.789498 11.5069 0.00113638 12.6659V15.3323C-0.00967661 15.5122 0.0570716 15.6881 0.184498 15.8155C0.311924 15.9429 0.487825 16.0097 0.667708 15.9989H11.3329C11.5127 16.0097 11.6886 15.9429 11.8161 15.8155C11.9435 15.6881 12.0102 15.5122 11.9994 15.3323V12.6659H15.3323C15.5122 12.6768 15.6881 12.61 15.8155 12.4826C15.9429 12.3552 16.0097 12.1793 15.9989 11.9994V9.33303C15.224 8.1608 14.0326 7.32684 12.666 6.99999ZM9.99973 1.33403C11.4705 1.33842 12.6616 2.52961 12.666 4.00036C12.6752 4.71031 12.3973 5.39388 11.8953 5.89593C11.3932 6.39797 10.7097 6.67593 9.99973 6.6667C9.99973 5.26687 8.73324 4.06702 7.4001 3.60041C7.58989 2.30762 8.69315 1.34579 9.99973 1.33403ZM3.334 7.33328C3.334 5.86071 4.52774 4.66695 6.00029 4.66695C7.47284 4.66695 8.66658 5.86071 8.66658 7.33328C8.66658 8.80585 7.47284 9.99961 6.00029 9.99961C4.52956 9.99522 3.33839 8.80403 3.334 7.33328ZM10.6663 14.6657H1.33427V13.3325C1.33427 13.3325 2.66741 11.3328 6.00027 11.3328C9.33313 11.3328 10.6663 13.3325 10.6663 13.3325V14.6657ZM14.6658 11.3328H10.733C10.1402 10.8295 9.42908 10.4855 8.66661 10.3329C9.35135 9.72944 9.80007 8.90283 9.93309 7.99986H9.99975C13.3326 7.99986 14.6658 9.99961 14.6658 9.99961V11.3328Z" fill="white"/>
</mask>
<g mask="url(#mask0)">
<rect width="16" height="16" fill="#001122" stroke="#EEEEEE"/>
<path d="M0 0V-0.5L-0.5 0H0ZM16 0H16.5L16 -0.5V0ZM16 16V16.5L16.5 16H16ZM0 16H-0.5L0 16.5V16ZM0 0.5H16V-0.5H0V0.5ZM15.5 0V16H16.5V0H15.5ZM16 15.5H0V16.5H16V15.5ZM0.5 16V0H-0.5V16H0.5Z" fill="black" fill-opacity="0.25"/>
</g>
</svg>
