<svg width="16" height="16" viewBox="0 0 16 16" fill="none" xmlns="http://www.w3.org/2000/svg">
<path fill-rule="evenodd" clip-rule="evenodd" d="M15.7635 7.44771C15.6484 7.26522 15.5152 7.06721 15.3629 6.85643C14.9379 6.26805 14.4409 5.68398 13.8725 5.13863C12.1914 3.52549 10.2291 2.56 8.00007 2.56C5.77105 2.56 3.80875 3.52549 2.12761 5.13863C1.55927 5.68398 1.06221 6.26805 0.637225 6.85643C0.484984 7.06721 0.351771 7.26522 0.236658 7.44771C0.164589 7.56197 0.143502 7.59733 0.073999 7.7164C-0.0244848 7.8918 -0.0244848 8.10823 0.0729141 8.28171C0.143502 8.40267 0.164589 8.43804 0.236658 8.55229C0.351771 8.73478 0.484984 8.93279 0.637225 9.14357C1.06221 9.73196 1.55927 10.316 2.12761 10.8614C3.80875 12.4745 5.77105 13.44 8.00007 13.44C10.2291 13.44 12.1914 12.4745 13.8725 10.8614C14.4409 10.316 14.9379 9.73196 15.3629 9.14357C15.5152 8.93279 15.6484 8.73478 15.7635 8.55229C15.8355 8.43804 15.8566 8.40267 15.9261 8.28359C16.0244 8.10855 16.0246 7.89258 15.9267 7.71735C15.8565 7.59715 15.8354 7.56167 15.7635 7.44771ZM8.00007 12.3099C5.11012 12.3099 2.81446 10.4513 1.2468 8.0726L1.24583 7.92892C2.73505 5.60141 5.09938 3.69016 8.00007 3.69016C10.8949 3.69016 13.1821 5.54324 14.7533 7.92743L14.7533 8.0726C13.1783 10.4624 10.8997 12.3099 8.00007 12.3099ZM8.00002 4.8C6.23334 4.8 4.80002 6.23208 4.80002 8C4.80002 9.76793 6.23332 11.2 8.00002 11.2C9.76671 11.2 11.2 9.76793 11.2 8C11.2 6.23208 9.76669 4.8 8.00002 4.8ZM8.00002 10.1207C6.82563 10.1207 5.87474 9.17061 5.87474 8C5.87474 6.82938 6.82563 5.8793 8.00002 5.8793C9.17441 5.8793 10.1253 6.82938 10.1253 8C10.1253 9.17061 9.17441 10.1207 8.00002 10.1207ZM8.70662 7.92535C9.02406 7.92535 9.28262 7.66811 9.28262 7.34935C9.28262 7.03059 9.02406 6.77335 8.70662 6.77335C8.38918 6.77335 8.13062 7.03059 8.13062 7.34935C8.13062 7.66811 8.38918 7.92535 8.70662 7.92535Z" fill="white"/>
<mask id="mask0" mask-type="alpha" maskUnits="userSpaceOnUse" x="0" y="2" width="16" height="12">
<path fill-rule="evenodd" clip-rule="evenodd" d="M15.7635 7.44771C15.6484 7.26522 15.5152 7.06721 15.3629 6.85643C14.9379 6.26805 14.4409 5.68398 13.8725 5.13863C12.1914 3.52549 10.2291 2.56 8.00007 2.56C5.77105 2.56 3.80875 3.52549 2.12761 5.13863C1.55927 5.68398 1.06221 6.26805 0.637225 6.85643C0.484984 7.06721 0.351771 7.26522 0.236658 7.44771C0.164589 7.56197 0.143502 7.59733 0.073999 7.7164C-0.0244848 7.8918 -0.0244848 8.10823 0.0729141 8.28171C0.143502 8.40267 0.164589 8.43804 0.236658 8.55229C0.351771 8.73478 0.484984 8.93279 0.637225 9.14357C1.06221 9.73196 1.55927 10.316 2.12761 10.8614C3.80875 12.4745 5.77105 13.44 8.00007 13.44C10.2291 13.44 12.1914 12.4745 13.8725 10.8614C14.4409 10.316 14.9379 9.73196 15.3629 9.14357C15.5152 8.93279 15.6484 8.73478 15.7635 8.55229C15.8355 8.43804 15.8566 8.40267 15.9261 8.28359C16.0244 8.10855 16.0246 7.89258 15.9267 7.71735C15.8565 7.59715 15.8354 7.56167 15.7635 7.44771ZM8.00007 12.3099C5.11012 12.3099 2.81446 10.4513 1.2468 8.0726L1.24583 7.92892C2.73505 5.60141 5.09938 3.69016 8.00007 3.69016C10.8949 3.69016 13.1821 5.54324 14.7533 7.92743L14.7533 8.0726C13.1783 10.4624 10.8997 12.3099 8.00007 12.3099ZM8.00002 4.8C6.23334 4.8 4.80002 6.23208 4.80002 8C4.80002 9.76793 6.23332 11.2 8.00002 11.2C9.76671 11.2 11.2 9.76793 11.2 8C11.2 6.23208 9.76669 4.8 8.00002 4.8ZM8.00002 10.1207C6.82563 10.1207 5.87474 9.17061 5.87474 8C5.87474 6.82938 6.82563 5.8793 8.00002 5.8793C9.17441 5.8793 10.1253 6.82938 10.1253 8C10.1253 9.17061 9.17441 10.1207 8.00002 10.1207ZM8.70662 7.92535C9.02406 7.92535 9.28262 7.66811 9.28262 7.34935C9.28262 7.03059 9.02406 6.77335 8.70662 6.77335C8.38918 6.77335 8.13062 7.03059 8.13062 7.34935C8.13062 7.66811 8.38918 7.92535 8.70662 7.92535Z" fill="white"/>
</mask>
<g mask="url(#mask0)">
<rect width="16" height="16" fill="#001122" stroke="#EEEEEE"/>
<path d="M0 0V-0.5L-0.5 0H0ZM16 0H16.5L16 -0.5V0ZM16 16V16.5L16.5 16H16ZM0 16H-0.5L0 16.5V16ZM0 0.5H16V-0.5H0V0.5ZM15.5 0V16H16.5V0H15.5ZM16 15.5H0V16.5H16V15.5ZM0.5 16V0H-0.5V16H0.5Z" fill="black" fill-opacity="0.25"/>
</g>
</svg>
